<svg width="94" height="45" fill="none" xmlns="http://www.w3.org/2000/svg"><path d="M47.425 21.408a2.947 2.947 0 0 1-.605-1.988v-2.884c0-.883.2-1.555.602-2.015.4-.46 1.089-.688 2.065-.686.917 0 1.569.196 1.953.587.42.499.625 1.109.578 1.724v.678h-1.64v-.687c.005-.224-.01-.449-.048-.671a.65.65 0 0 0-.235-.399.95.95 0 0 0-.594-.155 1.005 1.005 0 0 0-.625.164.768.768 0 0 0-.272.44 3.332 3.332 0 0 0-.065.713v3.499c-.026.337.047.675.21.982a.77.77 0 0 0 .328.238.9.9 0 0 0 .424.055.893.893 0 0 0 .58-.158.704.704 0 0 0 .245-.425c.038-.232.056-.467.051-.701v-.71h1.641v.648a2.64 2.64 0 0 1-.567 1.813c-.377.428-1.02.642-1.964.642s-1.658-.229-2.062-.704ZM54.257 21.438c-.415-.45-.622-1.103-.622-1.968v-3.033c0-.857.207-1.505.622-1.945.414-.44 1.107-.659 2.079-.657.965 0 1.654.22 2.069.657.414.44.625 1.088.625 1.945v3.032c0 .857-.21 1.514-.632 1.966-.421.451-1.107.677-2.062.677-.955 0-1.661-.229-2.08-.674Zm2.843-.728c.149-.28.216-.589.197-.897v-3.714a1.65 1.65 0 0 0-.193-.88.776.776 0 0 0-.335-.241.907.907 0 0 0-.433-.052.918.918 0 0 0-.434.052.786.786 0 0 0-.337.242c-.15.274-.217.576-.197.88v3.73c-.02.309.047.617.197.898.095.094.214.17.346.222a1.158 1.158 0 0 0 .843 0c.133-.052.25-.128.346-.222v-.018ZM61.004 13.924h1.766l1.328 5.595 1.36-5.595h1.718L67.35 22h-1.271l-.136-5.613L64.632 22h-1.02l-1.358-5.634L62.128 22h-1.284l.16-8.076ZM69.33 13.924h2.752c1.585 0 2.378.764 2.378 2.293 0 1.464-.835 2.196-2.504 2.194h-.937V22H69.32l.01-8.077Zm2.351 3.451c.168.019.338.006.5-.039.16-.044.31-.117.434-.216.195-.273.281-.593.245-.912a2.525 2.525 0 0 0-.082-.733.594.594 0 0 0-.125-.222.703.703 0 0 0-.214-.162 1.759 1.759 0 0 0-.758-.13h-.659v2.414h.66ZM76.91 13.924h1.824L80.606 22h-1.584l-.37-1.862h-1.627L76.645 22h-1.607l1.871-8.076Zm1.559 5.279-.636-3.39-.635 3.39h1.27ZM82.117 13.924h1.19l2.275 4.607v-4.607h1.41V22h-1.131l-2.29-4.81V22h-1.457l.003-8.076ZM90.294 18.92l-1.892-4.985h1.594l1.155 3.203 1.083-3.203h1.56l-1.869 4.986V22h-1.63v-3.08ZM50.048 25.532v.422h-1.386v3.282h-.581v-3.282h-1.393v-.422h3.36ZM54.393 29.236h-.449a.2.2 0 0 1-.126-.035.194.194 0 0 1-.074-.085l-.401-.88H51.42l-.4.88a.243.243 0 0 1-.062.1.208.208 0 0 1-.126.035h-.448l1.699-3.704h.59l1.72 3.69Zm-2.813-1.375h1.603l-.68-1.508a2.699 2.699 0 0 1-.125-.349c-.024.07-.044.138-.064.197l-.062.155-.672 1.505ZM57.321 28.872c.107.005.213.005.32 0 .091-.008.182-.023.271-.044.083-.017.165-.04.245-.067.075-.026.15-.059.227-.091v-.833h-.679a.137.137 0 0 1-.092-.03.086.086 0 0 1-.026-.03.074.074 0 0 1-.008-.037v-.284h1.318v1.42a2.578 2.578 0 0 1-.716.301c-.14.036-.281.061-.425.077-.165.015-.33.023-.496.023a2.59 2.59 0 0 1-.856-.138 2.09 2.09 0 0 1-.68-.387 1.79 1.79 0 0 1-.438-.586 1.851 1.851 0 0 1-.156-.769 1.92 1.92 0 0 1 .153-.774c.097-.22.247-.42.438-.587.194-.167.425-.297.68-.384.29-.095.6-.142.91-.138.158 0 .316.01.472.032.138.02.274.051.404.094.12.038.233.088.34.147.104.058.203.122.296.193l-.163.229a.142.142 0 0 1-.055.05.17.17 0 0 1-.078.02.222.222 0 0 1-.105-.029 2.113 2.113 0 0 1-.167-.088 1.504 1.504 0 0 0-.227-.1 2.127 2.127 0 0 0-.313-.082 2.614 2.614 0 0 0-.431-.032 2.009 2.009 0 0 0-.656.103c-.189.065-.36.165-.5.293a1.29 1.29 0 0 0-.315.46 1.732 1.732 0 0 0 0 1.235c.074.174.19.333.34.467.139.127.308.227.495.293.216.064.445.089.673.073ZM62.736 28.814h1.855v.422H62.17v-3.704h.58l-.013 3.282ZM66.52 29.236h-.58v-3.704h.58v3.704ZM68.681 25.55a.28.28 0 0 1 .089.067l2.483 2.792a.881.881 0 0 1 0-.132V25.517h.506v3.72h-.292a.275.275 0 0 1-.126-.021.328.328 0 0 1-.091-.07l-2.48-2.79v2.88h-.486v-3.704h.302c.033 0 .066.006.095.017ZM76.036 25.532v.407h-2.058v1.223h1.668v.393h-1.668v1.265h2.058v.407H73.38v-3.695h2.656ZM15.162 2.656l25.795 6.323v22.158l-25.795-6.32V2.655ZM13.507.766v25.127l29.1 7.136V7.905L13.508.767Z" fill="#AFB1B8"/><path d="M29.104 44.692 0 37.55V12.427l29.104 7.139v25.126Z" fill="#AFB1B8"/><path d="m13.99 2.371 25.458 6.244-10.826 9.35-25.463-6.247L13.99 2.37ZM13.507.767 0 12.427l29.104 7.14L42.608 7.904 13.508.767ZM30.741 43.279 42.608 33.03 30.74 30.12v13.16Z" fill="#AFB1B8"/></svg>